<?xml version="1.0" standalone="no"?>
<!DOCTYPE svg PUBLIC "-//W3C//DTD SVG 20010904//EN"
 "http://www.w3.org/TR/2001/REC-SVG-20010904/DTD/svg10.dtd">
<svg version="1.0" xmlns="http://www.w3.org/2000/svg"
 width="548.000000pt" height="548.000000pt" viewBox="0 0 548.000000 548.000000"
 preserveAspectRatio="xMidYMid meet">
<metadata>
Created by potrace 1.11, written by Peter Selinger 2001-2013
</metadata>
<g transform="translate(0.000000,548.000000) scale(0.100000,-0.100000)"
fill="#000000" stroke="none">
<path d="M962 4517 l-22 -23 0 -1755 0 -1756 23 -21 23 -22 1755 0 1756 0 21
23 22 23 0 1755 0 1756 -23 21 -23 22 -1755 0 -1756 0 -21 -23z m488 -1752 l0
-275 -45 0 -45 0 0 275 0 275 45 0 45 0 0 -275z m2450 110 c0 -91 3 -165 6
-165 3 0 39 36 81 80 l75 80 55 0 55 0 -73 -81 c-41 -44 -78 -86 -83 -94 -7
-9 14 -38 78 -107 l88 -93 -54 -3 -54 -3 -87 88 -87 88 0 -87 0 -88 -45 0 -45
0 0 275 0 275 45 0 45 0 0 -165z m-1084 110 c73 -46 106 -106 112 -204 6 -105
-14 -166 -73 -220 -60 -55 -119 -71 -272 -71 l-123 0 0 266 0 266 153 -4 c151
-3 155 -4 203 -33z m-517 -133 c45 -33 51 -57 51 -214 l0 -148 -45 0 -45 0 0
133 c0 156 -8 177 -68 177 -80 0 -102 -45 -102 -207 l0 -103 -45 0 -45 0 0
190 0 190 40 0 c37 0 41 -2 47 -31 5 -26 7 -29 16 -14 5 9 28 26 51 36 49 23
107 20 145 -9z m980 0 c41 -30 61 -65 70 -120 4 -28 6 -54 3 -57 -3 -3 -61 -5
-129 -5 l-123 0 0 -26 c0 -15 12 -38 29 -55 24 -24 38 -29 78 -29 26 0 61 7
77 15 38 20 40 20 53 -16 12 -30 11 -31 -34 -51 -80 -35 -189 -24 -241 25
-101 94 -60 300 66 336 49 13 121 5 151 -17z m404 2 c20 -10 37 -22 37 -27 0
-7 -18 -46 -25 -55 -2 -2 -14 3 -27 12 -13 9 -44 19 -69 22 -35 5 -49 2 -68
-13 -44 -36 -22 -57 90 -87 72 -20 109 -56 109 -105 0 -74 -55 -113 -160 -113
-47 0 -83 7 -114 20 -44 20 -45 21 -35 51 13 36 18 37 61 15 47 -24 136 -24
153 0 21 28 2 53 -48 66 -124 31 -162 61 -160 127 1 41 42 89 88 103 42 13
123 5 168 -16z m-2041 -118 c2 -115 6 -137 22 -155 27 -30 77 -28 110 5 25 26
26 30 26 155 l0 129 50 0 50 0 0 -190 0 -190 -45 0 c-42 0 -45 2 -45 27 l0 26
-22 -20 c-63 -58 -185 -43 -219 26 -8 16 -15 82 -17 174 l-4 147 45 0 45 0 4
-134z"/>
<path d="M2560 2761 l0 -191 73 0 c147 1 202 57 195 201 -5 124 -47 163 -185
175 l-83 7 0 -192z"/>
<path d="M3139 2797 c-18 -13 -39 -50 -39 -66 0 -7 32 -11 85 -11 79 0 85 1
85 20 0 33 -44 70 -82 70 -18 0 -40 -6 -49 -13z"/>
</g>
</svg>
